<?xml version="1.0" standalone="no"?><!DOCTYPE svg PUBLIC "-//W3C//DTD SVG 1.1//EN"
        "http://www.w3.org/Graphics/SVG/1.1/DTD/svg11.dtd">
<svg t="1616600649761" class="icon" viewBox="0 0 1024 1024" version="1.1" xmlns="http://www.w3.org/2000/svg" p-id="2706"
     xmlns:xlink="http://www.w3.org/1999/xlink" width="200" height="200">
    <defs>
        <style type="text/css"></style>
    </defs>
    <path d="M160 85.333333h704A74.666667 74.666667 0 0 1 938.666667 160v704a74.666667 74.666667 0 0 1-74.666667 74.666667h-704A74.666667 74.666667 0 0 1 85.333333 864v-704A74.666667 74.666667 0 0 1 160 85.333333z m0 64a10.666667 10.666667 0 0 0-10.666667 10.666667v704a10.666667 10.666667 0 0 0 10.666667 10.666667h704a10.666667 10.666667 0 0 0 10.666667-10.666667v-704a10.666667 10.666667 0 0 0-10.666667-10.666667h-704z"
          p-id="2707"></path>
    <path d="M278.186667 491.648l150.826666 150.848a10.666667 10.666667 0 0 0 15.104 0L745.813333 340.8a32 32 0 1 1 45.248 45.269333L489.386667 687.765333a74.666667 74.666667 0 0 1-105.6 0l-150.826667-150.848a32 32 0 1 1 45.226667-45.269333z"
          p-id="2708"></path>
</svg>