<?xml version="1.0" standalone="no"?><!DOCTYPE svg PUBLIC "-//W3C//DTD SVG 1.1//EN" "http://www.w3.org/Graphics/SVG/1.1/DTD/svg11.dtd"><svg t="1619966857717" class="icon" viewBox="0 0 1024 1024" version="1.1" xmlns="http://www.w3.org/2000/svg" p-id="5751" xmlns:xlink="http://www.w3.org/1999/xlink" width="200" height="200"><defs><style type="text/css"></style></defs><path d="M684.06 144H340.267C214.983 144 144 214.983 144 340.267v343.466C144 809.017 214.983 880 340.267 880H684.06C809.344 880 880 809.017 880 683.733V340.267C880 214.983 809.344 144 684.06 144" fill="#1C9DFF" p-id="5752"></path><path d="M370 362m-101 0a101 101 0 1 0 202 0 101 101 0 1 0-202 0Z" fill="#333333" p-id="5753"></path><path d="M582.79 708.293a30.849 30.849 0 0 0 19.4-11.062l110.862-142.765c6.802-12.4 3.538-27.897-7.692-36.516-11.23-8.62-27.078-7.792-37.346 1.949l-93.539 119.259-106.358-83.309a29.148 29.148 0 0 0-40.88 5.185l-113.286 147.26c-9.641 12.63-7.326 30.647 5.197 40.443a28.802 28.802 0 0 0 21.499 5.524 28.765 28.765 0 0 0 19.034-11.4L455.3 618.763l106.358 83.308a29.146 29.146 0 0 0 21.133 6.222z" fill="#333333" p-id="5754"></path></svg>